<?xml version="1.0" standalone="no"?><!DOCTYPE svg PUBLIC "-//W3C//DTD SVG 1.1//EN" "http://www.w3.org/Graphics/SVG/1.1/DTD/svg11.dtd"><svg t="1685729263734" class="icon" viewBox="0 0 1024 1024" version="1.1" xmlns="http://www.w3.org/2000/svg" p-id="23547" xmlns:xlink="http://www.w3.org/1999/xlink" width="200" height="200"><path d="M85.333333 1024h-6.826666c-6.826667-3.413333-10.24-10.24-10.24-17.066667 0-163.84 194.56-409.6 245.76-457.386666 3.413333-3.413333 13.653333-3.413333 20.48 0 6.826667 3.413333 10.24 10.24 6.826666 20.48C283.306667 785.066667 307.2 1003.52 307.2 1006.933333c0 6.826667-3.413333 13.653333-10.24 17.066667-6.826667 0-13.653333 0-20.48-3.413333l-88.746667-88.746667-88.746666 88.746667c-3.413333 0-10.24 3.413333-13.653334 3.413333z m102.4-136.533333c3.413333 0 10.24 0 13.653334 3.413333l68.266666 68.266667c-3.413333-68.266667-6.826667-197.973333 23.893334-337.92-64.853333 78.506667-160.426667 225.28-184.32 337.92l68.266666-68.266667c0-3.413333 6.826667-3.413333 10.24-3.413333zM273.066667 256c-3.413333 0-10.24 0-13.653334-3.413333L208.213333 201.386667c-3.413333-6.826667-3.413333-20.48 0-27.306667s17.066667-6.826667 23.893334 0l51.2 51.2c6.826667 6.826667 6.826667 17.066667 0 23.893333 0 6.826667-6.826667 6.826667-10.24 6.826667zM153.6 136.533333c-3.413333 0-10.24 0-13.653333-3.413333l-34.133334-34.133333c-3.413333-6.826667-3.413333-20.48 0-27.306667s17.066667-6.826667 23.893334 0l34.133333 34.133333c6.826667 6.826667 6.826667 20.48 3.413333 27.306667-3.413333 3.413333-10.24 3.413333-13.653333 3.413333zM392.533333 102.4c-10.24 0-17.066667-6.826667-17.066666-17.066667v-68.266666c0-10.24 6.826667-17.066667 17.066666-17.066667s17.066667 6.826667 17.066667 17.066667v68.266666c0 10.24-6.826667 17.066667-17.066667 17.066667zM529.066667 238.933333c-3.413333 0-10.24 0-13.653334-3.413333-6.826667-6.826667-6.826667-17.066667 0-23.893333l136.533334-136.533334c6.826667-6.826667 17.066667-6.826667 23.893333 0s6.826667 17.066667 0 23.893334l-136.533333 136.533333c0 3.413333-6.826667 3.413333-10.24 3.413333zM716.8 51.2c-3.413333 0-10.24 0-13.653333-3.413333-6.826667-6.826667-6.826667-17.066667 0-23.893334l17.066666-17.066666c6.826667-6.826667 17.066667-6.826667 23.893334 0s6.826667 17.066667 0 23.893333l-17.066667 17.066667c0 3.413333-6.826667 3.413333-10.24 3.413333zM870.4 341.333333h-204.8c-10.24 0-17.066667-6.826667-17.066667-17.066666s6.826667-17.066667 17.066667-17.066667h204.8c10.24 0 17.066667 6.826667 17.066667 17.066667s-6.826667 17.066667-17.066667 17.066666zM1006.933333 341.333333h-68.266666c-10.24 0-17.066667-6.826667-17.066667-17.066666s6.826667-17.066667 17.066667-17.066667h68.266666c10.24 0 17.066667 6.826667 17.066667 17.066667s-6.826667 17.066667-17.066667 17.066666zM153.6 307.2L13.653333 290.133333c-6.826667 0-13.653333-10.24-13.653333-20.48s10.24-17.066667 20.48-13.653333l136.533333 17.066667c6.826667 0 13.653333 10.24 13.653334 20.48 0 6.826667-10.24 13.653333-17.066667 13.653333zM85.333333 546.133333c-3.413333 0-10.24 0-13.653333-3.413333-6.826667-6.826667-6.826667-17.066667 0-23.893333l136.533333-136.533334c6.826667-6.826667 17.066667-6.826667 23.893334 0s6.826667 17.066667 0 23.893334l-136.533334 136.533333c0 3.413333-6.826667 3.413333-10.24 3.413333zM699.733333 546.133333c-3.413333 0-10.24 0-13.653333-3.413333l-102.4-102.4c-6.826667-6.826667-6.826667-17.066667 0-23.893333s17.066667-6.826667 23.893333 0l102.4 102.4c6.826667 6.826667 6.826667 17.066667 0 23.893333 0 3.413333-6.826667 3.413333-10.24 3.413333zM802.133333 648.533333c-3.413333 0-10.24 0-13.653333-3.413333l-34.133333-34.133333c-6.826667-6.826667-6.826667-17.066667 0-23.893334s17.066667-6.826667 23.893333 0l34.133333 34.133334c6.826667 6.826667 6.826667 17.066667 0 23.893333 0 3.413333-6.826667 3.413333-10.24 3.413333zM597.333333 750.933333c-6.826667 0-13.653333-3.413333-17.066666-10.24l-68.266667-170.666666c-3.413333-10.24 0-17.066667 10.24-23.893334 10.24-3.413333 17.066667 0 23.893333 10.24l68.266667 170.666667c3.413333 10.24 0 17.066667-10.24 23.893333h-6.826667z" fill="" p-id="23548"></path><path d="M491.52 512c-3.413333 0-6.826667 0-10.24-3.413333L392.533333 443.733333l-88.746666 64.853334c-6.826667 3.413333-13.653333 3.413333-20.48 0-6.826667-3.413333-6.826667-13.653333-6.826667-20.48l34.133333-105.813334-88.746666-61.44c-6.826667-6.826667-6.826667-13.653333-6.826667-20.48s10.24-10.24 17.066667-10.24H341.333333l34.133334-105.813333c3.413333-13.653333 27.306667-13.653333 34.133333 0l34.133333 105.813333h109.226667c6.826667 0 13.653333 3.413333 17.066667 10.24 3.413333 6.826667 0 13.653333-6.826667 20.48l-88.746667 64.853334 34.133334 105.813333c3.413333 6.826667 0 13.653333-6.826667 20.48h-10.24z m-98.986667-105.813333c3.413333 0 6.826667 0 10.24 3.413333l58.026667 40.96-20.48-68.266667c-3.413333-6.826667 0-13.653333 6.826667-20.48l58.026666-40.96h-71.68c-6.826667 0-13.653333-3.413333-17.066666-10.24l-20.48-68.266666-20.48 68.266666c-3.413333 6.826667-10.24 10.24-17.066667 10.24H283.306667l58.026666 40.96c6.826667 3.413333 6.826667 13.653333 6.826667 20.48l-20.48 68.266667 58.026667-40.96c0-3.413333 3.413333-3.413333 6.826666-3.413333z" fill="" p-id="23549"></path></svg>