<?xml version="1.0" standalone="no"?><!DOCTYPE svg PUBLIC "-//W3C//DTD SVG 1.1//EN" "http://www.w3.org/Graphics/SVG/1.1/DTD/svg11.dtd"><svg t="1685700146613" class="icon" viewBox="0 0 1024 1024" version="1.1" xmlns="http://www.w3.org/2000/svg" p-id="13275" xmlns:xlink="http://www.w3.org/1999/xlink" width="200" height="200"><path d="M287.1 615.7l-86 19.4c-6.7 1.5-10.9 8.2-9.4 14.9 1.3 5.9 6.5 9.8 12.2 9.8 0.9 0 1.8-0.1 2.7-0.4l86-19.4c6.7-1.5 10.9-8.2 9.4-14.9s-8.2-10.9-14.9-9.4z" p-id="13276"></path><path d="M954.8 301c-0.1-32.8-22.9-57.5-53-57.5-4 0-8.1 0.5-12.2 1.4L723 282.4l-0.2-70.5c-0.1-32.8-22.9-57.5-53-57.5-4 0-8.1 0.5-12.2 1.4L139.4 272.6c-30.3 6.8-54 38.4-53.9 71.8l1.2 366c0.1 32.8 22.9 57.5 53 57.5 4 0 8.1-0.5 12.2-1.4L318.5 729l0.2 70.5c0.1 32.8 22.9 57.5 53 57.5 4 0 8.1-0.5 12.2-1.4L902 738.9c30.3-6.8 54-38.4 53.9-71.8L954.8 301z m-49.4 186.1l-74.3 16.7 74-92.3 0.3 75.6zM372.5 602.8c-1.2-1.3-2.8-2.3-4.4-3l-0.3-72.1 78.1-17.6-73.4 92.7z m112.2-101.4l67.4-15.2-77.8 98-67.1 15.1 77.5-97.9z m106.3-24l67.3-15.2-78.1 98.1-67 15.1 77.8-98z m106.3-23.9l67.3-15.2-78.1 98.1-67.3 15.2 78.1-98.1z m105.3-22.7l-1-0.8 69.1-15.6-78.7 98.2-66.6 15 77.2-96.8z m98-137.2c0.4-0.1 0.9-0.2 1.2-0.2 1.6 0 3 3.5 3 7.6l0.3 79.9-434.2 97.8-0.1-0.1-0.1 0.1-102.9 23.2-0.3-68.6c0-11 8-21.3 14.9-22.9l518.2-116.8zM135.8 438.7l71.4-16.1-71.2 89.9-0.2-73.8z m99.8 58l-67.1 15.1 77.5-97.9 67.4-15.2-77.8 98z m81.9-63l0.2 44.5-43.2 9.7 43-54.2zM140.9 717.8c-0.4 0.1-0.9 0.2-1.2 0.2-1.6 0-3-3.5-3-7.6l-0.5-165.6 181.6-40.9 0.6 174-177.5 39.9z m-5.2-304.7l-0.2-68.8c0-11 8-21.3 14.9-22.9l518.2-116.8c0.4-0.1 0.9-0.2 1.2-0.2 1.6 0 3 3.5 3 7.6l0.3 79.9-537.4 121.2z m755.3 277L372.9 806.8c-0.4 0.1-0.9 0.2-1.2 0.2-1.6 0-3-3.5-3-7.6l-0.5-165.6 537.3-121.1 0.5 154.5c0 10.8-8.2 21.3-15 22.9z" p-id="13277"></path><path d="M522.6 700.5l-86 19.4c-6.7 1.5-11 8.2-9.4 14.9 1.3 5.8 6.5 9.8 12.2 9.8 0.9 0 1.8-0.1 2.8-0.3l86-19.4c6.7-1.5 11-8.2 9.4-14.9-1.6-6.8-8.2-11-15-9.5zM596.2 684l-27.3 6.2c-6.7 1.5-11 8.2-9.4 14.9 1.3 5.8 6.5 9.8 12.2 9.8 0.9 0 1.8-0.1 2.8-0.3l27.3-6.2c6.7-1.5 11-8.2 9.4-14.9-1.6-6.7-8.3-11-15-9.5z" p-id="13278"></path></svg>