<?xml version="1.0" standalone="no"?><!DOCTYPE svg PUBLIC "-//W3C//DTD SVG 1.1//EN" "http://www.w3.org/Graphics/SVG/1.1/DTD/svg11.dtd"><svg t="1685686300236" class="icon" viewBox="0 0 1077 1024" version="1.1" xmlns="http://www.w3.org/2000/svg" p-id="10598" xmlns:xlink="http://www.w3.org/1999/xlink" width="210.3515625" height="200"><path d="M984.117895 707.637895c-93.776842 21.288421-238.214737 101.591579-238.214737 101.591579s-104.016842 31.797895-177.313684 9.701052c-50.661053-15.090526-118.298947-37.456842-144.707369-64.40421-24.791579-25.061053-22.096842-50.391579-1.077894-47.157895 43.385263 7.006316 209.92 22.635789 255.191578 8.623158 45.002105-14.282105 70.602105-68.446316 50.930527-101.591579 0 0-59.014737-3.503158-195.637895-33.953684s-170.576842-51.738947-229.591579-25.330527c-45.541053 20.48-146.593684 80.842105-267.048421 112.101053-19.671579 5.12-31.797895 25.061053-27.216842 45.002105 13.204211 59.823158 41.498947 176.505263 69.254737 234.981053 1.347368 2.964211 2.694737 5.658947 3.772631 8.353684 5.928421 8.892632 15.629474 15.090526 26.947369 15.090527 3.233684 0 6.467368-0.808421 9.701052-1.886316l3.233685-0.808421c38.265263-9.162105 78.686316-19.671579 104.825263-23.174737 58.745263-7.814737 325.524211 61.978947 399.898947 67.637895 74.105263 5.658947 157.911579-72.218947 212.345263-101.591579 54.703158-29.103158 229.861053-143.629474 229.861053-143.629474s8.623158-81.111579-85.153684-59.553684z m-437.35579-211.267369c133.658947 0 241.717895-108.597895 241.717895-242.526315s-108.058947-242.526316-241.717895-242.526316c-133.658947 0-241.717895 108.597895-241.717894 242.526316s108.058947 242.526316 241.717894 242.526315z m-101.322105-219.082105h77.877895V246.029474h-77.877895V199.141053h60.901053l-54.703158-65.482106L485.052632 105.633684l61.709473 73.83579 61.709474-73.83579 33.414737 28.025263-54.972632 65.482106h61.170527v46.888421h-77.877895v31.258947h77.877895v46.888421h-77.877895v62.787369h-46.888421v-62.787369h-77.877895v-46.888421z" p-id="10599"></path></svg>