<?xml version="1.0" standalone="no"?><!DOCTYPE svg PUBLIC "-//W3C//DTD SVG 1.1//EN" "http://www.w3.org/Graphics/SVG/1.1/DTD/svg11.dtd"><svg t="1685701089340" class="icon" viewBox="0 0 1024 1024" version="1.1" xmlns="http://www.w3.org/2000/svg" p-id="11536" xmlns:xlink="http://www.w3.org/1999/xlink" width="200" height="200"><path d="M512.5 381.732c-123.997 0-224.511 100.557-224.511 224.554 0 124.027 100.513 224.592 224.511 224.592 123.99 0 224.511-100.565 224.511-224.592 0-123.997-100.521-224.554-224.511-224.554z m-1.173 385.158c-88.114 0-159.539-71.46-159.539-159.605 0-88.113 71.426-159.573 159.539-159.573 88.106 0 159.54 71.46 159.54 159.573 0 88.146-71.434 159.605-159.54 159.605z m388.826-510.295H751.381L696.18 143.914c-5.431-10.241-15.121-16.145-25.226-16.576a29.085 29.085 0 0 0-3.153-0.171H363.198c-6.112 0-11.8 1.911-16.57 5.189-4.767 2.825-8.903 7.068-11.814 12.558l-55.636 111.681H193.56V224.45c0-18.114-14.677-32.816-32.791-32.816-18.107 0-32.791 14.702-32.791 32.816v32.145h-4.136C56.549 256.595 2 311.169 2 378.492v458.625c0 67.317 54.549 121.891 121.842 121.891h776.311c67.299 0 121.847-52.574 121.847-119.891V378.493c0-67.324-54.548-121.898-121.847-121.898z m60.927 580.523c0 33.671-27.274 60.955-60.927 60.955H123.842c-33.646 0-60.927-27.284-60.927-60.955V380.493c0-33.707 27.28-60.961 60.927-60.961h177.975v-0.152c9.515-0.965 18.474-6.77 23.612-16.461l55.429-111.284h269.66l54.503 111.284c5.241 9.878 14.444 15.726 24.161 16.518v0.095h170.97c33.652 0 60.927 27.254 60.927 60.961v456.625zM799.821 384.232c-17.654 0-31.959 14.297-31.959 31.951 0 17.648 14.305 31.977 31.959 31.977 17.647 0 31.958-14.329 31.958-31.977 0.001-17.654-14.31-31.951-31.958-31.951z" fill="" p-id="11537"></path></svg>