<?xml version="1.0" standalone="no"?><!DOCTYPE svg PUBLIC "-//W3C//DTD SVG 1.1//EN" "http://www.w3.org/Graphics/SVG/1.1/DTD/svg11.dtd"><svg t="1684819262965" class="icon" viewBox="0 0 1024 1024" version="1.1" xmlns="http://www.w3.org/2000/svg" p-id="2227" xmlns:xlink="http://www.w3.org/1999/xlink" width="200" height="200"><path d="M354.89 678.86l161.3-68.67-99.01-97.42-62.29 166.09zM833.99 298.78l-102.21-105.4-296.24 292.24 106.2 110.19 292.25-297.03zM918.19 172.7S891.14 142.76 860 120c-31.14-22.76-55.09 0-55.09 0l-52.7 52.7L859.2 279.3s45.11-45.51 58.99-61.08c13.88-15.58 0-45.52 0-45.52z" p-id="2228"></path><path d="M866.65 505.11c-14.13 0-25.62 11.49-25.62 25.62V811c0 31.36-25.51 56.87-56.87 56.87H206.75c-31.36 0-56.87-25.51-56.87-56.87V233.59c0-31.36 25.51-56.87 56.87-56.87h280.27c14.13 0 25.62-11.49 25.62-25.62s-11.49-25.62-25.62-25.62H206.75c-59.61 0-108.11 48.5-108.11 108.11V811c0 59.61 48.5 108.11 108.11 108.11h577.41c59.61 0 108.11-48.5 108.11-108.11V530.73c0-14.13-11.49-25.62-25.62-25.62z" fill="#060001" p-id="2229"></path></svg>