<?xml version="1.0" standalone="no"?><!DOCTYPE svg PUBLIC "-//W3C//DTD SVG 1.1//EN" "http://www.w3.org/Graphics/SVG/1.1/DTD/svg11.dtd"><svg t="1685700999931" class="icon" viewBox="0 0 1024 1024" version="1.1" xmlns="http://www.w3.org/2000/svg" p-id="10198" xmlns:xlink="http://www.w3.org/1999/xlink" width="200" height="200"><path d="M728.5 721.3c-9.3 0-18.4-4.3-24.3-12.3L428.5 330.7 152.7 709c-9.8 13.4-28.5 16.3-41.9 6.6s-16.3-28.5-6.6-41.9l300-411.6c5.6-7.7 14.7-12.3 24.2-12.3s18.6 4.6 24.2 12.3l300 411.6c9.8 13.4 6.8 32.2-6.6 41.9-5.2 3.9-11.4 5.7-17.5 5.7z" p-id="10199"></path><path d="M428.5 840.7c-83.9 0-163.2-13.2-223.3-37.3-31.1-12.4-55.9-27.3-73.8-44.2-27.2-25.8-33-51.5-33-68.5 0-16.6 13.4-30 30-30s30 13.4 30 30c0 17.9 27.1 40.2 69 57 53.2 21.3 124.6 33 201 33s147.8-11.7 201-33c41.9-16.8 69-39.1 69-57 0-16.6 13.4-30 30-30s30 13.4 30 30c0 17-5.7 42.7-33 68.5-17.9 16.9-42.7 31.8-73.8 44.2-60 24.1-139.3 37.3-223.1 37.3z" p-id="10200"></path><path d="M428.1 737.2c-59.2 0-115.4-7.7-162.5-22.1-7.9-2.4-12.4-10.8-9.9-18.7 2.4-7.9 10.8-12.4 18.7-9.9 44.2 13.6 97.4 20.8 153.6 20.8 144 0 244.4-46.8 244.4-88.8 0-8.3 6.7-15 15-15s15 6.7 15 15c0 34.3-30.3 65.3-85.4 87.3-50.6 20.2-117.7 31.4-188.9 31.4z" p-id="10201"></path><path d="M387 545.5m-18 0a18 18 0 1 0 36 0 18 18 0 1 0-36 0Z" p-id="10202"></path><path d="M401.2 611.7m-18 0a18 18 0 1 0 36 0 18 18 0 1 0-36 0Z" p-id="10203"></path><path d="M348.6 644.5m-18 0a18 18 0 1 0 36 0 18 18 0 1 0-36 0Z" p-id="10204"></path><path d="M442.2 499.9m-18 0a18 18 0 1 0 36 0 18 18 0 1 0-36 0Z" p-id="10205"></path><path d="M427 420h-61c-8.3 0-15-6.7-15-15s6.7-15 15-15h61c8.3 0 15 6.7 15 15s-6.7 15-15 15zM391 475h-61c-8.3 0-15-6.7-15-15s6.7-15 15-15h61c8.3 0 15 6.7 15 15s-6.7 15-15 15zM351 530h-61c-8.3 0-15-6.7-15-15s6.7-15 15-15h61c8.3 0 15 6.7 15 15s-6.7 15-15 15zM310 585h-61c-8.3 0-15-6.7-15-15s6.7-15 15-15h61c8.3 0 15 6.7 15 15s-6.7 15-15 15zM269 640h-61c-8.3 0-15-6.7-15-15s6.7-15 15-15h61c8.3 0 15 6.7 15 15s-6.7 15-15 15zM227 695h-61c-8.3 0-15-6.7-15-15s6.7-15 15-15h61c8.3 0 15 6.7 15 15s-6.7 15-15 15z" p-id="10206"></path><path d="M719 595c-35.8 0-65-29.2-65-65s29.2-65 65-65 65 29.2 65 65-29.2 65-65 65z m0-100c-19.3 0-35 15.7-35 35s15.7 35 35 35 35-15.7 35-35-15.7-35-35-35z" p-id="10207"></path><path d="M675.2 514.6c-1.2 0-2.3-0.1-3.5-0.4-29.3-7.1-49.7-33-49.7-63.2 0-35.8 29.2-65 65-65s65 29.2 65 65c0 13-3.8 25.6-11.1 36.4-4.6 6.9-14 8.7-20.8 4-6.9-4.6-8.7-14-4-20.8 3.9-5.8 6-12.5 6-19.6 0-19.3-15.7-35-35-35s-35 15.7-35 35c0 16.2 11 30.2 26.8 34 8.1 1.9 13 10 11.1 18.1-1.8 6.9-8 11.5-14.8 11.5z" p-id="10208"></path><path d="M627 454.3c-4.3 0-8.6-0.9-12.8-2.9-15-7.1-21.4-24.9-14.3-39.9 16-33.9 50.5-55.8 88-55.8 27.3 0 53.6 11.6 72 31.8 11.1 12.3 10.2 31.2-2 42.4-12.3 11.1-31.2 10.3-42.4-2-7.2-7.9-17-12.2-27.6-12.2-14.4 0-27.6 8.4-33.8 21.4-5.1 10.8-15.9 17.2-27.1 17.2z" p-id="10209"></path><path d="M812.8 520.8c-4.1 0-8.1-1.6-11.1-4.9-5.6-6.1-5.2-15.6 0.9-21.2 7.3-6.7 11.3-15.9 11.3-25.8 0-19.3-15.7-35-35-35-9.3 0-18.1 3.6-24.7 10.3-5.9 5.9-15.4 5.9-21.2 0-5.9-5.9-5.9-15.4 0-21.2 12.3-12.3 28.6-19 46-19 35.8 0 65 29.2 65 65 0 18.1-7.7 35.6-21 47.9-2.9 2.6-6.6 3.9-10.2 3.9zM713.7 680.4c-7.3 0-13.7-5.3-14.8-12.7-1.3-8.2 4.3-15.9 12.5-17.1C728.3 648 741 633.1 741 616c0-7.3-2.2-14.4-6.5-20.3-4.8-6.7-3.2-16.1 3.5-20.9 6.7-4.8 16.1-3.2 20.9 3.5 7.9 11.1 12.1 24.1 12.1 37.7 0 15.6-5.6 30.7-15.8 42.5-10.1 11.7-24 19.4-39.2 21.7-0.7 0.1-1.5 0.2-2.3 0.2zM581.4 485.6c-5.2 0-10.5-1.4-15.3-4.2-14.3-8.4-19-26.8-10.5-41.1C570 416 596.4 401 624.5 401c16.6 0 30 13.4 30 30s-13.4 30-30 30c-7.1 0-13.6 3.7-17.2 9.8-5.6 9.5-15.6 14.8-25.9 14.8z" p-id="10210"></path><path d="M787.1 732.6c-32.2 0-62-17.5-77.6-45.6-8.1-14.5-2.9-32.7 11.6-40.8 14.5-8.1 32.7-2.9 40.8 11.6 5.1 9.2 14.8 14.8 25.3 14.8 15.9 0 28.9-13 28.9-28.9 0-4.2-0.9-8.2-2.6-12-6.9-15.1-0.2-32.9 14.8-39.7 15.1-6.9 32.9-0.2 39.7 14.8 5.3 11.6 8 24 8 36.9 0 49-39.9 88.9-88.9 88.9z" p-id="10211"></path><path d="M804 627c-32.9 0-60.6-24.6-64.5-57.2-1-8.2 4.9-15.7 13.1-16.7s15.7 4.9 16.7 13.1c2.1 17.5 17 30.8 34.7 30.8 19.3 0 35-15.7 35-35s-15.7-35-35-35c-8.3 0-16 2.8-22.3 8-6.4 5.3-15.8 4.4-21.1-2-5.3-6.4-4.4-15.8 2-21.1 11.6-9.7 26.4-15 41.5-15 35.8 0 65 29.2 65 65S839.8 627 804 627z" p-id="10212"></path><path d="M845.3 641.3c-9 0-18-4.1-23.9-11.8-10-13.1-7.5-31.9 5.5-42 3.5-3 12-15.1 12-24.1 0-2.4-0.3-4.9-0.9-7.2-3.9-16.1 5.9-32.3 22-36.3 16.1-3.9 32.3 5.9 36.3 22 1.7 7 2.6 14.2 2.6 21.4 0 32.5-21.8 61.2-35.5 71.7-5.3 4.3-11.7 6.3-18.1 6.3z" p-id="10213"></path><path d="M858.5 544c-6 0-12-1.8-17.2-5.5-13.6-9.5-16.8-28.2-7.3-41.8 2.7-3.9 22.1-30.4 52.2-47.8-1.9-7.3-3-14.6-3.5-21.4-8.5-0.2-17.7-1.3-27.4-3.9-14.9-3.9-27.4-13.2-36.3-27L791.3 420c-12.7 10.7-31.6 9.1-42.3-3.6-10.7-12.7-9.1-31.6 3.6-42.3l61.8-52.1c8.9-7.5 21.2-9.4 31.8-4.6 10.5 4.8 17.3 15 17.5 26.6 0.4 9.2 4.1 19.6 6.7 21.6 17.2 4.5 33-0.1 34.7-0.6 10.5-3.9 22-1.7 30.2 5.8 8.3 7.5 11.5 18.9 8.6 29.8-1.8 7.8-4.5 32.3 6.1 45.2 6.7 8.2 8.7 19.3 5.1 29.3s-12.2 17.3-22.6 19.3c-22.4 4.3-43.9 28.7-49.6 36.8-5.6 8.4-14.9 12.8-24.4 12.8z" p-id="10214"></path><path d="M737 438c-3.8 0-7.7-0.7-11.4-2.3-15.3-6.3-22.6-23.9-16.3-39.2 24.8-60-9.1-92.2-24.3-99.5-14.9-7.2-21.2-25.1-14-40.1s25.1-21.2 40.1-14c23.9 11.5 45 34.5 56.5 61.3 10.4 24.3 18.3 63.9-2.9 115.1C759.9 431 748.8 438 737 438z" p-id="10215"></path></svg>