<?xml version="1.0" standalone="no"?><!DOCTYPE svg PUBLIC "-//W3C//DTD SVG 1.1//EN" "http://www.w3.org/Graphics/SVG/1.1/DTD/svg11.dtd"><svg t="1685686456548" class="icon" viewBox="0 0 1024 1024" version="1.1" xmlns="http://www.w3.org/2000/svg" p-id="12675" xmlns:xlink="http://www.w3.org/1999/xlink" width="200" height="200"><path d="M512.065536 444.964864c144.876544 0 262.376448-67.828736 262.376448-151.48032 0-83.65568-117.495808-151.484416-262.376448-151.484416-144.87552-0.139264-262.375424 67.692544-262.375424 151.344128C249.690112 377.132032 367.18592 444.964864 512.065536 444.964864L512.065536 444.964864 512.065536 444.964864zM512.205824 183.144448c119.560192 0 229.627904 55.996416 229.627904 103.327744 0 47.328256-110.203904 104.424448-229.627904 104.424448-119.564288 0-229.632-57.096192-229.632-104.424448C282.433536 239.140864 392.641536 183.144448 512.205824 183.144448L512.205824 183.144448 512.205824 183.144448zM512.065536 508.116992c-125.063168 0-229.491712-65.90464-255.90784-137.724928-4.127744 10.73664-6.603776 21.876736-6.603776 33.296384 0 83.651584 117.495808 151.484416 262.376448 151.484416 144.87552 0 262.375424-67.832832 262.375424-151.484416 0-11.419648-2.335744-22.56384-6.603776-33.296384-26.00448 71.824384-130.568192 137.724928-255.632384 137.724928l0 0L512.065536 508.116992zM512.065536 618.324992c-119.424 0-219.999232-74.020864-251.780096-146.940928-6.879232 13.484032-10.591232 27.656192-10.591232 42.376192 0 83.652608 117.495808 151.484416 262.375424 151.484416 144.876544 0 262.376448-67.831808 262.376448-151.484416 0-14.72-3.852288-29.031424-10.592256-42.376192-31.783936 72.920064-132.360192 146.940928-251.784192 146.940928l0 0L512.065536 618.324992zM512.065536 706.65216c-125.063168 0-229.491712-65.903616-255.90784-137.719808-4.127744 10.732544-6.603776 21.875712-6.603776 33.292288 0 83.651584 117.495808 151.619584 262.376448 151.619584 144.87552 0 262.375424-67.827712 262.375424-151.619584 0-11.419648-2.335744-22.56384-6.603776-33.292288C741.697536 640.75264 637.133824 706.65216 512.069632 706.65216l0 0L512.065536 706.65216zM512.065536 794.984448c-125.063168 0-229.491712-65.903616-255.90784-137.723904-4.127744 10.73152-6.603776 21.875712-6.603776 33.296384 0 83.651584 117.495808 151.479296 262.376448 151.479296 144.87552 0 262.375424-67.827712 262.375424-151.479296 0-11.420672-2.335744-22.564864-6.603776-33.296384-26.00448 71.820288-130.568192 137.723904-255.632384 137.723904l0 0L512.065536 794.984448zM512.065536 794.984448" fill="#272635" p-id="12676"></path></svg>