<?xml version="1.0" standalone="no"?><!DOCTYPE svg PUBLIC "-//W3C//DTD SVG 1.1//EN" "http://www.w3.org/Graphics/SVG/1.1/DTD/svg11.dtd"><svg t="1685700207725" class="icon" viewBox="0 0 1024 1024" version="1.1" xmlns="http://www.w3.org/2000/svg" p-id="14299" xmlns:xlink="http://www.w3.org/1999/xlink" width="200" height="200"><path d="M512.6 387.68L460.88 357.14 369.44 512 361.1 512 251.12 361.58 202.64 396.98 286.76 512 212 512 212 572 332 572 332 632 212 632 212 692 332 692 332 752 392 752 392 692 512 692 512 632 392 632 392 572 512 572 512 512 439.16 512Z" p-id="14300"></path><path d="M872 212L152 212C85.82 212 32 265.82 32 332l0 420c0 66.18 53.82 120 120 120l720 0c66.18 0 120-53.82 120-120l0-30.6 0-60-60-4.92c-46.98-16.26-81-60.54-81-112.98 0-52.44 33.96-96.66 81-112.92l60-4.98 0-60L992 332C992 265.82 938.18 212 872 212zM152 812c-33.06 0-60-26.88-60-60L92 332c0-33.06 26.94-60 60-60l480 0 0 540L152 812zM932 368.06c-80.52 17.88-141 89.64-141 175.44 0 85.86 60.48 157.56 141 175.5L932 752c0 33.12-26.88 60-60 60l-180 0L692 272l180 0c33.12 0 60 26.94 60 60L932 368.06z" p-id="14301"></path></svg>