<?xml version="1.0" standalone="no"?><!DOCTYPE svg PUBLIC "-//W3C//DTD SVG 1.1//EN" "http://www.w3.org/Graphics/SVG/1.1/DTD/svg11.dtd"><svg t="1685701289302" class="icon" viewBox="0 0 1024 1024" version="1.1" xmlns="http://www.w3.org/2000/svg" p-id="19162" xmlns:xlink="http://www.w3.org/1999/xlink" width="200" height="200"><path d="M221.653333 464.725333a171.946667 171.946667 0 0 0 184.362667 38.528l26.197333-10.24 366.805334 366.762667 60.757333-60.757333-366.805333-366.805334 10.24-26.197333a171.946667 171.946667 0 0 0-149.290667-234.410667l99.2 99.2-45.568 136.746667-136.746667 45.568-99.2-99.2c2.56 40.789333 19.626667 80.426667 50.048 110.805333zM160.853333 525.525333a257.877333 257.877333 0 0 1-57.770666-276.522666l23.978666-61.184 166.954667 166.954666 45.568-15.189333 15.189333-45.568-166.954666-166.954667 61.184-23.978666a257.877333 257.877333 0 0 1 343.296 306.858666L981.333333 799.018667 799.018667 981.333333l-389.077334-389.034666a257.834667 257.834667 0 0 1-249.088-66.773334z" fill="#2E2F30" p-id="19163"></path></svg>