<?xml version="1.0" standalone="no"?><!DOCTYPE svg PUBLIC "-//W3C//DTD SVG 1.1//EN" "http://www.w3.org/Graphics/SVG/1.1/DTD/svg11.dtd"><svg t="1685947056374" class="icon" viewBox="0 0 1024 1024" version="1.1" xmlns="http://www.w3.org/2000/svg" p-id="3952" xmlns:xlink="http://www.w3.org/1999/xlink" width="200" height="200"><path d="M927.522 444.004H915.14a12.383 12.383 0 0 0 0 24.541h13.284v12.384a12.383 12.383 0 0 0 24.542 0v-12.384h12.383a12.383 12.383 0 0 0 0-24.541h-12.383V431.62a12.383 12.383 0 0 0-24.542 0zM47.846 235.06a22.515 22.515 0 1 0 11.032-19.138 22.515 22.515 0 0 0-11.032 19.138z m748.862 552.978l-115.73-280.092h-470.12L95.127 788.04h-2.251V1024H799.86V788.039z" fill="#A7B1C1" opacity=".2" p-id="3953"></path><path d="M710.699 788.039h-190.03a73.625 73.625 0 1 1-147.476 0H92.877V1024H799.86V788.039z m30.17-545.548l103.121 45.03L903.43 65.52zM903.432 65.52L622.889 198.36l88.485 45.031zM741.32 257.126v73.85l45.03-45.03zM209.957 507.947H682.78v206.466H209.957z" fill="#A7B1C1" opacity=".2" p-id="3954"></path><path d="M798.96 788.039h-2.252l-114.829-278.29v-1.802H209.957v2.027L95.128 788.039h-2.251V1024H799.86V788.039z m-16.662 0h-71.6l-28.819-82.407V544.647z m-559.733-73.626h446.706l25.667 73.626H520.67v6.079a73.625 73.625 0 0 1-147.026 0v-6.08H196.898zM668.37 521.231v180.123H223.24V521.231z m-458.413 22.516v161.21l-28.82 83.082h-71.6zM105.26 1010.716V801.323h254.65a86.91 86.91 0 0 0 172.017 0h254.198v209.393z" fill="#A7B1C1" opacity=".2" p-id="3955"></path><path d="M338.745 654.522l26.343-13.734a7.43 7.43 0 0 0-6.98-13.059l-25.893 13.51a7.43 7.43 0 0 0 6.53 13.283z m52.235-28.594q12.834-7.655 25.218-15.986a7.43 7.43 0 1 0-8.106-12.158q-12.158 8.105-24.542 15.535a7.43 7.43 0 0 0 7.655 12.609z m49.76-33.548q11.933-9.006 22.515-19.138a7.43 7.43 0 0 0-10.132-10.357q-10.357 9.231-22.516 18.462a7.43 7.43 0 0 0 9.007 11.708z m45.03-40.303a239.789 239.789 0 0 0 19.138-22.515 7.43 7.43 0 0 0-11.933-8.556 223.578 223.578 0 0 1-18.012 22.516 7.43 7.43 0 0 0 0 10.357 7.43 7.43 0 0 0 10.357 0z m34.899-50.66a7.43 7.43 0 0 1-13.51-6.078 140.946 140.946 0 0 0 9.682-26.343 7.43 7.43 0 0 1 14.185 3.602 156.032 156.032 0 0 1-10.357 28.82z m14.41-60.115a61.242 61.242 0 0 0-10.808-31.747 7.43 7.43 0 0 0-12.158 8.33 46.832 46.832 0 0 1 8.556 24.317 7.43 7.43 0 0 0 14.635 0z m-36.925-53.362a97.942 97.942 0 0 0-30.396-9.681 7.43 7.43 0 1 0-2.252 14.635 83.082 83.082 0 0 1 25.668 8.33 7.43 7.43 0 1 0 6.754-13.059z m-63.043-9.681a59.215 59.215 0 0 0-30.621 13.96 7.43 7.43 0 1 0 10.13 10.581 45.03 45.03 0 0 1 22.516-10.132 7.43 7.43 0 0 0-2.477-14.41z m-39.177 49.533a75.427 75.427 0 0 0 16.886 27.92 7.43 7.43 0 0 0 10.357 0 7.43 7.43 0 0 0 0-10.358 61.242 61.242 0 0 1-13.734-22.515 7.43 7.43 0 0 0-14.185 4.053z m41.203 49.534a101.544 101.544 0 0 0 28.82 13.51 7.43 7.43 0 0 0 4.052-14.185 86.684 86.684 0 0 1-24.541-11.483 7.43 7.43 0 0 0-8.106 12.158z m60.791 17.112a7.43 7.43 0 0 1 0-14.635 109.2 109.2 0 0 0 27.244-4.953 7.43 7.43 0 1 1 4.278 14.184 123.61 123.61 0 0 1-31.296 4.954z m61.017-18.237a231.909 231.909 0 0 0 25.893-16.212 7.43 7.43 0 0 0-8.556-11.933 216.148 216.148 0 0 1-24.091 15.086 7.43 7.43 0 1 0 6.98 13.059z m48.408-34.224q11.258-9.907 22.516-20.714a7.43 7.43 0 0 0-10.583-10.357q-10.132 10.357-20.939 19.813a7.43 7.43 0 0 0 9.682 11.033z m42.554-43.455q9.682-11.482 18.688-22.515a7.43 7.43 0 0 0-11.708-8.781q-8.78 11.708-18.012 22.515a7.43 7.43 0 0 0 11.257 9.457z m36.475-48.408q8.331-12.383 15.986-25.217a7.43 7.43 0 0 0-1.576-9.682 7.43 7.43 0 0 0-10.132 2.477q-7.43 12.384-15.535 24.542a7.43 7.43 0 1 0 12.158 8.105z m30.396-50.66l8.556-16.436a7.43 7.43 0 0 0-13.284-6.529l-8.33 15.986a7.43 7.43 0 0 0 2.926 9.907 7.43 7.43 0 0 0 9.907-2.927z m-270.86-227.18a36.025 36.025 0 1 1 36.025-36.024 36.25 36.25 0 0 1-36.025 36.024z m0-58.99A22.515 22.515 0 1 0 468.433 35.8a22.515 22.515 0 0 0-22.515-22.515z" fill="#A7B1C1" opacity=".2" p-id="3956"></path></svg>