<?xml version="1.0" standalone="no"?><!DOCTYPE svg PUBLIC "-//W3C//DTD SVG 1.1//EN" "http://www.w3.org/Graphics/SVG/1.1/DTD/svg11.dtd"><svg t="1684665817299" class="icon" viewBox="0 0 1024 1024" version="1.1" xmlns="http://www.w3.org/2000/svg" p-id="6015" xmlns:xlink="http://www.w3.org/1999/xlink" width="200" height="200"><path d="M552.448 678.912v-209.92h209.92v209.92h-209.92z m82.944-166.912h-43.008v126.464h43.008V512z m83.456 0H675.84v126.464h43.008V512z m281.6 43.008c-17.408 17.408-43.008 17.408-60.416 3.072l-11.264-11.264V931.84h43.008c23.04 0 43.008 19.968 43.008 43.008v43.008H8.704v-43.008c0-23.04 19.968-43.008 43.008-43.008h43.008v-385.024l-11.264 11.264c-17.408 17.408-43.008 17.408-57.344 0l-3.072-3.072c-17.408-17.408-17.408-43.008 0-57.344l112.128-112.128V135.68c-22.528 0-43.008-20.48-43.008-43.52V49.152c0-23.04 19.968-43.008 43.008-43.008H302.08c23.04 0 43.008 19.968 43.008 43.008V92.16c0 23.04-19.968 43.008-43.008 43.008v83.456l209.92-209.92 491.52 488.448c11.776 14.848 11.776 40.96-3.072 57.856z m-700.928 373.76h126.464v-126.464h-43.008v-40.448h43.008v-126.464H299.52v293.376zM173.056 342.528L256 259.072V135.68H173.056v206.848zM299.52 49.152H132.608V92.16h166.912V49.152z m543.232 411.136L506.368 126.976 169.984 463.36V931.84h83.456v-336.384h209.92V931.84H839.68V460.288h3.072z" fill="" p-id="6016"></path></svg>