<?xml version="1.0" standalone="no"?><!DOCTYPE svg PUBLIC "-//W3C//DTD SVG 1.1//EN" "http://www.w3.org/Graphics/SVG/1.1/DTD/svg11.dtd"><svg t="1685686073711" class="icon" viewBox="0 0 1024 1024" version="1.1" xmlns="http://www.w3.org/2000/svg" p-id="8006" xmlns:xlink="http://www.w3.org/1999/xlink" width="200" height="200"><path d="M877.222298 473.52576c18.9184 0 34.88768 0.76288 50.7648-0.13312 66.43456-3.7504 110.94272 52.64896 87.83104 115.54816-8.21248 22.34112-22.9632 44.7104-40.48128 60.8-122.15552 112.18432-245.17376 223.45984-369.30816 333.45536-56.01024 49.63072-131.35104 49.61536-187.67104-0.22016a27607.68 27607.68 0 0 1-371.7888-334.9504c-52.70016-48.36352-57.45408-100.33408-20.60288-152.75264 12.11648-17.23648 27.0592-24.10496 48.46336-22.50752 75.54816 5.62944 75.58656 5.11744 75.58656-69.1328 0-82.9824-0.22272-165.96736 0.06144-248.95232C150.394778 60.864 209.745818 0.68864 303.221658 0.3584 442.480538-0.13312 581.744538-0.09728 721.000858 0.34048c94.57408 0.29952 155.55072 61.1328 156.096 155.59424 0.54784 94.42816 0.12288 188.864 0.12544 283.29216v34.29888zM219.926938 545.63328c-38.4512 0-72.69376-0.32-106.93376 0.09728-29.73696 0.36096-38.1312 13.47328-24.73472 39.72352 4.53888 8.896 12.10624 16.768 19.72224 23.488 116.41856 102.76096 233.08288 205.24032 349.66272 307.81184 36.67456 32.2688 72.34816 33.216 109.62688 1.11104 51.2512-44.13952 101.79584-89.09568 152.58368-133.7728 68.66176-60.40576 137.87136-120.21248 205.23008-182.03904 9.88672-9.07264 14.35136-27.93472 14.06464-42.11712-0.1024-4.99712-21.73184-12.9152-33.88928-13.65504-31.79008-1.94048-63.77984-0.65536-96.94976-0.65536v-39.44448c-0.00256-115.35104 0.31488-230.69952-0.14848-346.04544-0.22016-54.55872-27.04128-81.1776-80.58368-81.23904-142.0416-0.1664-284.0832-0.16384-426.1248-0.00256-55.57504 0.06144-81.40544 26.432-81.49504 82.68288-0.11776 73.40288-0.03072 146.80832-0.03072 220.21376v163.84256z" p-id="8007"></path><path d="M568.860058 362.23232c38.016 0 70.00064-0.29696 101.96992 0.1664 10.3296 0.15104 20.92288 1.15968 30.88128 3.75808 19.27936 5.02784 29.16352 19.15392 26.62144 38.34624-2.46528 18.61376-14.08256 31.41888-34.53184 31.73888-36.23936 0.5632-72.48384 0.45824-108.73088 0.60928-10.26816 0.04608-20.53888 0.00768-32.42496 0.00768v72.82176h101.0176c10.49344 0 21.00992 0.45056 31.4752-0.08448 25.01632-1.27488 40.70656 9.9072 43.57632 34.83136 2.45504 21.29664-16.80896 38.33344-43.55072 38.92992-34.32192 0.76544-68.67712 0.20224-103.01696 0.21248h-31.2192c0 31.97952 0.98816 61.29408-0.45824 90.49088-0.62976 12.75904-2.61376 28.864-10.5856 36.90496-8.28928 8.36608-26.94144 14.95296-36.69504 11.14112-11.28448-4.41344-24.00512-20.3904-25.21344-32.44032-3.38944-33.8048-1.18272-68.17024-1.18272-106.09408-42.83392 0-82.52416 0.02304-122.2144-0.01792-9.53856-0.00768-19.23328 0.8576-28.57728-0.54272-21.97248-3.29472-35.35872-17.63072-33.79712-38.98112 1.50528-20.6208 14.3232-34.5856 37.95712-34.42688 46.56896 0.31488 93.14048 0.09216 141.60384 0.09216v-72.9472c-48.22784 0-95.65952-0.05888-143.08864 0.0256-23.29088 0.04352-36.37248-13.5168-37.88032-34.54464-1.44384-20.08576 10.69312-34.1504 31.45728-37.91872 9.27232-1.68192 18.88512-1.9328 28.34688-1.99936 33.01376-0.22528 66.03264-0.0896 102.61504-6.78656-34.99776-34.3808-70.33856-68.42624-104.86528-103.27552-20.89728-21.08928-20.672-47.25248 0.00512-61.57056 21.1328-14.63552 39.8336-7.30112 56.18944 9.14432 34.92352 35.11296 69.58848 70.48448 108.34688 109.7984 31.34464-32.2944 60.91264-62.84288 90.59328-93.28384 7.31904-7.50336 14.5408-15.2192 22.61504-21.8496 17.67424-14.51776 36.43392-16.58368 54.1312-0.49408 16.08704 14.62272 15.60576 37.84192-1.81248 55.89248-31.12448 32.25856-63.22176 63.57504-94.8352 95.36512-3.72224 3.75552-6.95552 7.98976-14.72256 16.98048z" p-id="8008"></path></svg>