<?xml version="1.0" standalone="no"?><!DOCTYPE svg PUBLIC "-//W3C//DTD SVG 1.1//EN" "http://www.w3.org/Graphics/SVG/1.1/DTD/svg11.dtd"><svg t="1685683717413" class="icon" viewBox="0 0 1024 1024" version="1.1" xmlns="http://www.w3.org/2000/svg" p-id="5865" xmlns:xlink="http://www.w3.org/1999/xlink" width="200" height="200"><path d="M778.752 1024H245.248c-46.592 0-84.992-37.888-84.992-84.992V84.992C160.256 37.888 198.144 0 245.248 0h534.016c46.592 0 84.992 37.888 84.992 84.992v854.016c-0.512 47.104-38.4 84.992-85.504 84.992zM245.248 62.976c-12.288 0-22.016 9.728-22.016 22.016v854.016c0 12.288 9.728 22.016 22.016 22.016h534.016c12.288 0 22.016-9.728 22.016-22.016V84.992c0-12.288-9.728-22.016-22.016-22.016H245.248z" fill="#333333" p-id="5866"></path><path d="M832.512 773.632H191.488c-17.408 0-31.744-14.336-31.744-31.744 0-17.408 14.336-31.744 31.744-31.744h640.512c17.408 0 31.744 14.336 31.744 31.744 0 17.408-13.824 31.744-31.232 31.744z" fill="#333333" p-id="5867"></path><path d="M512 864.768m-53.248 0a53.248 53.248 0 1 0 106.496 0 53.248 53.248 0 1 0-106.496 0Z" fill="#333333" p-id="5868"></path></svg>